<svg xmlns="http://www.w3.org/2000/svg" version="1.1" xmlns:xlink="http://www.w3.org/1999/xlink" xmlns:svgjs="http://svgjs.dev/svgjs" width="1000" height="376" viewBox="0 0 1000 376"><g transform="matrix(1,0,0,1,-0.6060606060606233,0.5601412083858293)"><svg viewBox="0 0 396 149" data-background-color="#ffffff" preserveAspectRatio="xMidYMid meet" height="376" width="1000" xmlns="http://www.w3.org/2000/svg" xmlns:xlink="http://www.w3.org/1999/xlink"><g id="tight-bounds" transform="matrix(1,0,0,1,0.2400000000000091,-0.2219708511954508)"><svg viewBox="0 0 395.52 149.4439417023909" height="149.4439417023909" width="395.52"><g><svg viewBox="0 0 531.9688379092593 200.99999999999997" height="149.4439417023909" width="395.52"><g><rect width="5.6956441263157895" height="200.99999999999997" x="179.0824288706628" y="0" fill="#6f605b" opacity="1" stroke-width="0" stroke="transparent" fill-opacity="1" class="rect-qz-0" data-fill-palette-color="primary" rx="1%" id="qz-0" data-palette-color="#6f605b"></rect></g><g transform="matrix(1,0,0,1,199.68813615487332,0.4999999999999858)"><svg viewBox="0 0 332.280701754386 200" height="200" width="332.280701754386"><g id="textblocktransform"><svg viewBox="0 0 332.280701754386 200" height="200" width="332.280701754386" id="textblock"><g><svg viewBox="0 0 332.280701754386 200" height="200" width="332.280701754386"><g transform="matrix(1,0,0,1,0,0)"><svg width="332.280701754386" viewBox="1.8999999999999986 -39.00000000000001 284.09999999999997 165.5" height="200" data-palette-color="#6f605b"><svg></svg><svg></svg><svg></svg><g class="wordmark-text-0" data-fill-palette-color="primary" id="text-0"><path d="M13-18.15v10.2c0 1.267 0.077 2.29 0.23 3.07 0.147 0.787 0.47 1.387 0.97 1.8 0.5 0.42 1.207 0.713 2.12 0.88 0.92 0.167 2.13 0.267 3.63 0.3v0 1.9h-17.7v-1.9c1.167-0.033 2.11-0.133 2.83-0.3 0.713-0.167 1.27-0.45 1.67-0.85 0.4-0.4 0.667-0.967 0.8-1.7 0.133-0.733 0.2-1.683 0.2-2.85v0-23.3c0-1.167-0.057-2.11-0.17-2.83-0.12-0.713-0.353-1.28-0.7-1.7-0.353-0.413-0.863-0.693-1.53-0.84-0.667-0.153-1.533-0.263-2.6-0.33v0-1.9h28.9l0.55 9.55h-1.75c-0.2-1.433-0.517-2.61-0.95-3.53-0.433-0.913-1.04-1.637-1.82-2.17-0.787-0.533-1.78-0.907-2.98-1.12-1.2-0.22-2.7-0.33-4.5-0.33v0h-6.35c-0.567 0-0.85 0.283-0.85 0.85v0 15.1c1.6 0 2.977-0.093 4.13-0.28 1.147-0.18 2.097-0.503 2.85-0.97 0.747-0.467 1.32-1.1 1.72-1.9 0.4-0.8 0.65-1.833 0.75-3.1v0h1.75v14.65h-1.75c-0.167-1.267-0.433-2.317-0.8-3.15-0.367-0.833-0.907-1.483-1.62-1.95-0.72-0.467-1.647-0.8-2.78-1-1.133-0.2-2.55-0.3-4.25-0.3zM37.15-0.55l-0.75-11.2h1.85c0.233 1.5 0.677 2.85 1.33 4.05 0.647 1.2 1.46 2.217 2.44 3.05 0.987 0.833 2.12 1.473 3.4 1.92 1.287 0.453 2.68 0.68 4.18 0.68v0c2.467 0 4.417-0.583 5.85-1.75 1.433-1.167 2.15-2.75 2.15-4.75v0c0-0.833-0.143-1.6-0.43-2.3-0.28-0.7-0.753-1.377-1.42-2.03-0.667-0.647-1.557-1.287-2.67-1.92-1.12-0.633-2.53-1.317-4.23-2.05v0c-2.067-0.9-3.8-1.767-5.2-2.6-1.4-0.833-2.517-1.7-3.35-2.6-0.833-0.9-1.427-1.86-1.78-2.88-0.347-1.013-0.52-2.17-0.52-3.47v0c0-1.533 0.277-2.95 0.83-4.25 0.547-1.3 1.32-2.423 2.32-3.37 1-0.953 2.183-1.69 3.55-2.21 1.367-0.513 2.867-0.77 4.5-0.77v0c1.467 0 2.833 0.233 4.1 0.7 1.267 0.467 2.55 1.217 3.85 2.25v0l1.3-2.25h1.15l0.55 9.95h-1.85c-0.8-2.733-1.957-4.767-3.47-6.1-1.52-1.333-3.347-2-5.48-2v0c-2.033 0-3.65 0.5-4.85 1.5-1.2 1-1.8 2.35-1.8 4.05v0c0 0.8 0.133 1.523 0.4 2.17 0.267 0.653 0.7 1.27 1.3 1.85 0.6 0.587 1.383 1.17 2.35 1.75 0.967 0.587 2.167 1.197 3.6 1.83v0c2.467 1.1 4.517 2.123 6.15 3.07 1.633 0.953 2.933 1.903 3.9 2.85 0.967 0.953 1.65 1.953 2.05 3 0.4 1.053 0.6 2.23 0.6 3.53v0c0 1.667-0.333 3.2-1 4.6-0.667 1.4-1.6 2.6-2.8 3.6-1.2 1-2.633 1.773-4.3 2.32-1.667 0.553-3.5 0.83-5.5 0.83v0c-1.9 0-3.607-0.267-5.12-0.8-1.52-0.533-3.063-1.433-4.63-2.7v0l-1.4 2.45z" fill="#6f605b" fill-rule="nonzero" stroke="none" stroke-width="1" stroke-linecap="butt" stroke-linejoin="miter" stroke-miterlimit="10" stroke-dasharray="" stroke-dashoffset="0" font-family="none" font-weight="none" font-size="none" text-anchor="none" style="mix-blend-mode: normal" data-fill-palette-color="primary" opacity="1"></path><path transform="translate(0,57)" d="M19.9 0h-18v-1.9c1.3-0.033 2.343-0.133 3.13-0.3 0.78-0.167 1.38-0.45 1.8-0.85 0.413-0.4 0.697-0.967 0.85-1.7 0.147-0.733 0.22-1.683 0.22-2.85v0-23.3c0-1.167-0.057-2.11-0.17-2.83-0.12-0.713-0.353-1.28-0.7-1.7-0.353-0.413-0.863-0.693-1.53-0.84-0.667-0.153-1.533-0.263-2.6-0.33v0-1.9h14.95c4.5 0 8 0.8 10.5 2.4 2.5 1.6 3.75 3.85 3.75 6.75v0c0 2.2-0.69 4-2.07 5.4-1.387 1.4-3.58 2.55-6.58 3.45v0 0.2c1.033 0.1 1.933 0.217 2.7 0.35 0.767 0.133 1.45 0.29 2.05 0.47 0.6 0.187 1.16 0.413 1.68 0.68 0.513 0.267 1.02 0.567 1.52 0.9v0c2.967 2.1 4.45 4.733 4.45 7.9v0c0 1.767-0.49 3.407-1.47 4.92-0.987 1.52-2.363 2.713-4.13 3.58v0c-0.567 0.3-1.15 0.54-1.75 0.72-0.6 0.187-1.3 0.337-2.1 0.45-0.8 0.12-1.723 0.203-2.77 0.25-1.053 0.053-2.297 0.08-3.73 0.08zM20.05-2.15v0c6.033 0 9.05-2.583 9.05-7.75v0c0-3.767-1.55-6.4-4.65-7.9v0c-0.533-0.233-1.05-0.433-1.55-0.6-0.5-0.167-1.083-0.293-1.75-0.38-0.667-0.08-1.457-0.137-2.37-0.17-0.92-0.033-2.047-0.05-3.38-0.05v0h-2.25v11.15c0 2.033 0.533 3.49 1.6 4.37 1.067 0.887 2.833 1.33 5.3 1.33zM13.15-21.5h2.8c1.033 0 1.9-0.017 2.6-0.05 0.7-0.033 1.3-0.093 1.8-0.18 0.5-0.08 0.943-0.197 1.33-0.35 0.38-0.147 0.77-0.353 1.17-0.62v0c1.067-0.667 1.827-1.467 2.28-2.4 0.447-0.933 0.67-2.15 0.67-3.65v0c0-2.633-0.64-4.527-1.92-5.68-1.287-1.147-3.297-1.72-6.03-1.72v0h-3.85c-0.567 0-0.85 0.283-0.85 0.85v0zM61.25-13.6v-4.9c0-1.367-0.033-2.443-0.1-3.23-0.067-0.78-0.24-1.38-0.52-1.8-0.287-0.413-0.703-0.697-1.25-0.85-0.553-0.147-1.313-0.27-2.28-0.37v0-1.75h9.05v15.35c0 1.9 0.023 3.45 0.07 4.65 0.053 1.2 0.13 2.1 0.23 2.7v0c0.067 0.433 0.177 0.773 0.33 1.02 0.147 0.253 0.37 0.453 0.67 0.6 0.3 0.153 0.693 0.253 1.18 0.3 0.48 0.053 1.103 0.08 1.87 0.08v0 1.75l-8.25 0.6-0.55-6h-0.2c-1.267 2.067-2.723 3.573-4.37 4.52-1.653 0.953-3.38 1.43-5.18 1.43v0c-1.4 0-2.757-0.267-4.07-0.8-1.32-0.533-2.313-1.25-2.98-2.15v0c-0.567-0.733-0.973-1.75-1.22-3.05-0.253-1.3-0.38-2.983-0.38-5.05v0-7.95c0-1.367-0.033-2.443-0.1-3.23-0.067-0.78-0.24-1.38-0.52-1.8-0.287-0.413-0.703-0.697-1.25-0.85-0.553-0.147-1.313-0.27-2.28-0.37v0-1.75h9.05v13.65c0 3.633 0.427 6.267 1.28 7.9 0.847 1.633 2.203 2.45 4.07 2.45v0c2.933 0 5.217-1.917 6.85-5.75v0c0.167-0.4 0.3-0.767 0.4-1.1 0.1-0.333 0.183-0.7 0.25-1.1 0.067-0.4 0.117-0.85 0.15-1.35 0.033-0.5 0.05-1.1 0.05-1.8zM83-27v19.05c0 1.3 0.057 2.34 0.17 3.12 0.12 0.787 0.347 1.403 0.68 1.85 0.333 0.453 0.8 0.763 1.4 0.93 0.6 0.167 1.4 0.267 2.4 0.3v0 1.75h-14.35v-1.75c1-0.033 1.817-0.143 2.45-0.33 0.633-0.18 1.123-0.48 1.47-0.9 0.353-0.413 0.587-0.997 0.7-1.75 0.12-0.747 0.18-1.703 0.18-2.87v0-6.4c0-1.933-0.027-3.527-0.08-4.78-0.047-1.247-0.137-2.103-0.27-2.57v0c-0.167-0.767-0.55-1.293-1.15-1.58-0.6-0.28-1.733-0.42-3.4-0.42v0-1.75zM77.25-37.15v0c0-0.867 0.3-1.6 0.9-2.2 0.6-0.6 1.333-0.9 2.2-0.9v0c0.867 0 1.6 0.3 2.2 0.9 0.6 0.6 0.9 1.333 0.9 2.2v0c0 0.867-0.3 1.6-0.9 2.2-0.6 0.6-1.333 0.9-2.2 0.9v0c-0.867 0-1.6-0.3-2.2-0.9-0.6-0.6-0.9-1.333-0.9-2.2zM99.1-41.5v33.7c0 1.267 0.05 2.283 0.15 3.05 0.1 0.767 0.31 1.367 0.63 1.8 0.313 0.433 0.76 0.733 1.34 0.9 0.587 0.167 1.363 0.267 2.33 0.3v0 1.75h-13.8v-1.75c1-0.033 1.8-0.143 2.4-0.33 0.6-0.18 1.073-0.47 1.42-0.87 0.353-0.4 0.587-0.96 0.7-1.68 0.12-0.713 0.18-1.653 0.18-2.82v0-21.55c0-1.8-0.027-3.307-0.08-4.52-0.047-1.22-0.12-2.047-0.22-2.48v0c-0.167-0.767-0.56-1.283-1.18-1.55-0.613-0.267-1.72-0.4-3.32-0.4v0-1.7zM129.1 0.5v-4.7h-0.2c-1.2 1.7-2.477 2.907-3.83 3.62-1.347 0.72-2.937 1.08-4.77 1.08v0c-1.9 0-3.643-0.343-5.23-1.03-1.58-0.68-2.947-1.63-4.1-2.85-1.147-1.213-2.047-2.67-2.7-4.37-0.647-1.7-0.97-3.55-0.97-5.55v0c0-1.967 0.323-3.793 0.97-5.48 0.653-1.68 1.553-3.13 2.7-4.35 1.153-1.213 2.53-2.163 4.13-2.85 1.6-0.68 3.333-1.02 5.2-1.02v0c1.6 0 3.023 0.267 4.27 0.8 1.253 0.533 2.463 1.383 3.63 2.55v0-5.1c0-1.9-0.023-3.483-0.07-4.75-0.053-1.267-0.13-2.133-0.23-2.6v0c-0.167-0.733-0.633-1.25-1.4-1.55-0.767-0.3-2.017-0.45-3.75-0.45v0-1.5l10.25-1.9v28.85c0 2.3 0.017 4.19 0.05 5.67 0.033 1.487 0.133 2.547 0.3 3.18v0c0.1 0.4 0.223 0.733 0.37 1 0.153 0.267 0.373 0.473 0.66 0.62 0.28 0.153 0.66 0.263 1.14 0.33 0.487 0.067 1.113 0.1 1.88 0.1v0 1.7zM128.1-11.95v-3.3c0-1.733-0.093-3.05-0.28-3.95-0.18-0.9-0.537-1.683-1.07-2.35v0c-0.767-1-1.743-1.76-2.93-2.28-1.18-0.513-2.353-0.77-3.52-0.77v0c-2.4 0-4.227 0.99-5.48 2.97-1.247 1.987-1.87 4.68-1.87 8.08v0c0 1.767 0.157 3.367 0.47 4.8 0.32 1.433 0.787 2.657 1.4 3.67 0.62 1.02 1.39 1.803 2.31 2.35 0.913 0.553 1.97 0.83 3.17 0.83v0c0.6 0 1.21-0.067 1.83-0.2 0.613-0.133 1.21-0.343 1.79-0.63 0.587-0.28 1.13-0.613 1.63-1 0.5-0.38 0.917-0.82 1.25-1.32v0c0.467-0.733 0.8-1.617 1-2.65 0.2-1.033 0.3-2.45 0.3-4.25zM163.2-6.05l1.55 1.4c-2.833 3.433-6.35 5.15-10.55 5.15v0c-1.967 0-3.75-0.327-5.35-0.98-1.6-0.647-2.977-1.563-4.13-2.75-1.147-1.18-2.037-2.597-2.67-4.25-0.633-1.647-0.95-3.47-0.95-5.47v0c0-2.033 0.333-3.917 1-5.65 0.667-1.733 1.607-3.217 2.82-4.45 1.22-1.233 2.67-2.2 4.35-2.9 1.687-0.7 3.53-1.05 5.53-1.05v0c3.233 0 5.733 0.873 7.5 2.62 1.767 1.753 2.65 4.263 2.65 7.53v0c0 0.467-0.093 0.75-0.28 0.85-0.18 0.1-0.603 0.15-1.27 0.15v0h-16.45c-0.067 0.267-0.117 0.59-0.15 0.97-0.033 0.387-0.05 0.813-0.05 1.28v0c0 1.733 0.207 3.307 0.62 4.72 0.42 1.42 1.02 2.63 1.8 3.63 0.787 1 1.72 1.773 2.8 2.32 1.087 0.553 2.297 0.83 3.63 0.83v0c1.4 0 2.7-0.31 3.9-0.93 1.2-0.613 2.433-1.62 3.7-3.02zM147.3-18.15h9.2c0.667 0 1.2-0.017 1.6-0.05 0.4-0.033 0.7-0.1 0.9-0.2 0.2-0.1 0.333-0.24 0.4-0.42 0.067-0.187 0.1-0.43 0.1-0.73v0c0-1.533-0.493-2.76-1.48-3.68-0.98-0.913-2.32-1.37-4.02-1.37v0c-3.6 0-5.833 2.15-6.7 6.45zM178.4-9.65v1.7c0 1.367 0.033 2.45 0.1 3.25 0.067 0.8 0.24 1.407 0.52 1.82 0.287 0.42 0.697 0.697 1.23 0.83 0.533 0.133 1.283 0.233 2.25 0.3v0 1.75h-13.3v-1.75c0.967-0.033 1.733-0.123 2.3-0.27 0.567-0.153 1-0.43 1.3-0.83 0.3-0.4 0.49-0.977 0.57-1.73 0.087-0.747 0.13-1.753 0.13-3.02v0-5.85c0-2.267-0.027-4.033-0.08-5.3-0.047-1.267-0.213-2.2-0.5-2.8-0.28-0.6-0.72-0.96-1.32-1.08-0.6-0.113-1.433-0.17-2.5-0.17v0-1.75l8.75-1.9 0.7 6.2h0.2c0.433-1 0.973-1.917 1.62-2.75 0.653-0.833 1.363-1.543 2.13-2.13 0.767-0.58 1.567-1.037 2.4-1.37 0.833-0.333 1.683-0.5 2.55-0.5v0c1.067 0 1.907 0.257 2.52 0.77 0.62 0.52 0.93 1.213 0.93 2.08v0c0 0.8-0.25 1.423-0.75 1.87-0.5 0.453-1.217 0.68-2.15 0.68v0c-0.533 0-0.983-0.067-1.35-0.2-0.367-0.133-0.693-0.277-0.98-0.43-0.28-0.147-0.547-0.287-0.8-0.42-0.247-0.133-0.52-0.2-0.82-0.2v0c-0.9 0-1.8 0.573-2.7 1.72-0.9 1.153-1.6 2.613-2.1 4.38v0c-0.267 0.967-0.477 2.057-0.63 3.27-0.147 1.22-0.22 2.497-0.22 3.83zM196.45-1.75l-1 1.75h-1.1v-8.6h1.25c1.3 4.7 3.667 7.05 7.1 7.05v0c1.333 0 2.39-0.327 3.17-0.98 0.787-0.647 1.18-1.637 1.18-2.97v0c0-0.5-0.077-0.927-0.23-1.28-0.147-0.347-0.43-0.713-0.85-1.1-0.413-0.38-0.997-0.82-1.75-1.32-0.747-0.5-1.737-1.133-2.97-1.9v0c-1.133-0.7-2.117-1.35-2.95-1.95-0.833-0.6-1.533-1.21-2.1-1.83-0.567-0.613-0.993-1.27-1.28-1.97-0.28-0.7-0.42-1.517-0.42-2.45v0c0-1.133 0.19-2.177 0.57-3.13 0.387-0.947 0.913-1.753 1.58-2.42 0.667-0.667 1.45-1.193 2.35-1.58 0.9-0.38 1.883-0.57 2.95-0.57v0c0.9 0 1.833 0.14 2.8 0.42 0.967 0.287 1.817 0.663 2.55 1.13v0l1-1.05h0.95v7.2h-1.3c-0.733-2.033-1.533-3.483-2.4-4.35-0.867-0.867-1.933-1.3-3.2-1.3v0c-1.133 0-2.043 0.3-2.73 0.9-0.68 0.6-1.02 1.433-1.02 2.5v0c0 0.567 0.09 1.057 0.27 1.47 0.187 0.42 0.48 0.83 0.88 1.23 0.4 0.4 0.907 0.807 1.52 1.22 0.62 0.42 1.363 0.897 2.23 1.43v0c1.433 0.9 2.657 1.7 3.67 2.4 1.02 0.7 1.847 1.39 2.48 2.07 0.633 0.687 1.1 1.397 1.4 2.13 0.3 0.733 0.45 1.567 0.45 2.5v0c0 2.367-0.767 4.223-2.3 5.57-1.533 1.353-3.55 2.03-6.05 2.03v0c-2.6 0-4.833-0.75-6.7-2.25zM245.55-22.9v0c1.6-1.233 2.767-2.493 3.5-3.78 0.733-1.28 1.1-2.67 1.1-4.17v0c0-1.567-0.35-2.81-1.05-3.73-0.7-0.913-1.633-1.37-2.8-1.37v0c-2.2 0-3.3 1.683-3.3 5.05v0c0 1.467 0.217 2.873 0.65 4.22 0.433 1.353 1.067 2.613 1.9 3.78zM251.45-6.65l-8.75-11.55c-2.1 1.2-3.733 2.607-4.9 4.22-1.167 1.62-1.75 3.297-1.75 5.03v0c0 1.833 0.59 3.343 1.77 4.53 1.187 1.18 2.713 1.77 4.58 1.77v0c1.4 0 2.9-0.35 4.5-1.05 1.6-0.7 3.117-1.683 4.55-2.95zM246.95-21l8.1 10.55c0.8-1 1.54-1.977 2.22-2.93 0.687-0.947 1.28-1.843 1.78-2.69 0.5-0.853 0.883-1.63 1.15-2.33 0.267-0.7 0.4-1.267 0.4-1.7v0c0-0.533-0.243-0.917-0.73-1.15-0.48-0.233-1.253-0.35-2.32-0.35v0-1.75h11.5v1.75c-0.733 0-1.36 0.04-1.88 0.12-0.513 0.087-0.97 0.23-1.37 0.43-0.4 0.2-0.777 0.467-1.13 0.8-0.347 0.333-0.687 0.767-1.02 1.3v0l-7.1 10.4c1.4 1.9 2.857 3.34 4.37 4.32 1.52 0.987 3.03 1.48 4.53 1.48v0c0.433 0 0.817-0.043 1.15-0.13 0.333-0.08 0.64-0.23 0.92-0.45 0.287-0.213 0.553-0.503 0.8-0.87 0.253-0.367 0.513-0.833 0.78-1.4v0l1.25 0.35c-0.367 1.867-1.183 3.29-2.45 4.27-1.267 0.987-2.917 1.48-4.95 1.48v0c-0.833 0-1.627-0.09-2.38-0.27-0.747-0.187-1.503-0.497-2.27-0.93-0.767-0.433-1.583-1-2.45-1.7-0.867-0.7-1.817-1.567-2.85-2.6v0c-1.667 1.733-3.593 3.083-5.78 4.05-2.18 0.967-4.403 1.45-6.67 1.45v0c-1.533 0-2.943-0.227-4.23-0.68-1.28-0.447-2.387-1.06-3.32-1.84-0.933-0.787-1.667-1.723-2.2-2.81-0.533-1.08-0.8-2.253-0.8-3.52v0c0-2.267 0.9-4.36 2.7-6.28 1.8-1.913 4.683-3.837 8.65-5.77v0c-1.067-1.567-1.843-3.033-2.33-4.4-0.48-1.367-0.72-2.8-0.72-4.3v0c0-1.467 0.207-2.81 0.62-4.03 0.42-1.213 1.013-2.253 1.78-3.12 0.767-0.867 1.683-1.54 2.75-2.02 1.067-0.487 2.25-0.73 3.55-0.73v0c1.133 0 2.173 0.183 3.12 0.55 0.953 0.367 1.78 0.883 2.48 1.55 0.7 0.667 1.24 1.45 1.62 2.35 0.387 0.9 0.58 1.9 0.58 3v0c0 1.867-0.61 3.617-1.83 5.25-1.213 1.633-3.22 3.4-6.02 5.3z" fill="#6f605b" fill-rule="nonzero" stroke="none" stroke-width="1" stroke-linecap="butt" stroke-linejoin="miter" stroke-miterlimit="10" stroke-dasharray="" stroke-dashoffset="0" font-family="none" font-weight="none" font-size="none" text-anchor="none" style="mix-blend-mode: normal" data-fill-palette-color="primary" opacity="1"></path><path transform="translate(0,114)" d="M21.45 0h-19.55v-1.9c1.267-0.033 2.293-0.127 3.08-0.28 0.78-0.147 1.387-0.43 1.82-0.85 0.433-0.413 0.727-0.98 0.88-1.7 0.147-0.713 0.22-1.67 0.22-2.87v0-23.3c0-1.167-0.057-2.11-0.17-2.83-0.12-0.713-0.353-1.28-0.7-1.7-0.353-0.413-0.863-0.693-1.53-0.84-0.667-0.153-1.533-0.263-2.6-0.33v0-1.9h17.55c3 0 5.777 0.5 8.33 1.5 2.547 1 4.747 2.383 6.6 4.15 1.847 1.767 3.287 3.867 4.32 6.3 1.033 2.433 1.55 5.083 1.55 7.95v0c0 2.733-0.483 5.24-1.45 7.52-0.967 2.287-2.323 4.247-4.07 5.88-1.753 1.633-3.847 2.907-6.28 3.82-2.433 0.92-5.1 1.38-8 1.38zM20.35-36.05h-6.35c-0.567 0-0.85 0.283-0.85 0.85v0 27.05c0 3.8 2.483 5.7 7.45 5.7v0c4.567 0 8.067-1.36 10.5-4.08 2.433-2.713 3.65-6.703 3.65-11.97v0c0-2.767-0.333-5.233-1-7.4-0.667-2.167-1.623-4-2.87-5.5-1.253-1.5-2.763-2.65-4.53-3.45-1.767-0.8-3.767-1.2-6-1.2zM68.75-6.05l1.55 1.4c-2.833 3.433-6.35 5.15-10.55 5.15v0c-1.967 0-3.75-0.327-5.35-0.98-1.6-0.647-2.973-1.563-4.12-2.75-1.153-1.18-2.047-2.597-2.68-4.25-0.633-1.647-0.95-3.47-0.95-5.47v0c0-2.033 0.333-3.917 1-5.65 0.667-1.733 1.61-3.217 2.83-4.45 1.213-1.233 2.663-2.2 4.35-2.9 1.68-0.7 3.52-1.05 5.52-1.05v0c3.233 0 5.733 0.873 7.5 2.62 1.767 1.753 2.65 4.263 2.65 7.53v0c0 0.467-0.09 0.75-0.27 0.85-0.187 0.1-0.613 0.15-1.28 0.15v0h-16.45c-0.067 0.267-0.117 0.59-0.15 0.97-0.033 0.387-0.05 0.813-0.05 1.28v0c0 1.733 0.21 3.307 0.63 4.72 0.413 1.42 1.013 2.63 1.8 3.63 0.78 1 1.713 1.773 2.8 2.32 1.08 0.553 2.287 0.83 3.62 0.83v0c1.4 0 2.7-0.31 3.9-0.93 1.2-0.613 2.433-1.62 3.7-3.02zM52.85-18.15h9.2c0.667 0 1.2-0.017 1.6-0.05 0.4-0.033 0.7-0.1 0.9-0.2 0.2-0.1 0.333-0.24 0.4-0.42 0.067-0.187 0.1-0.43 0.1-0.73v0c0-1.533-0.49-2.76-1.47-3.68-0.987-0.913-2.33-1.37-4.03-1.37v0c-3.6 0-5.833 2.15-6.7 6.45zM85.85 0.55l-8.45-20.85c-0.4-1-0.757-1.793-1.07-2.38-0.32-0.58-0.663-1.02-1.03-1.32-0.367-0.3-0.773-0.493-1.22-0.58-0.453-0.08-0.997-0.137-1.63-0.17v0-1.75h13.25v1.75c-0.667 0.033-1.217 0.067-1.65 0.1-0.433 0.033-0.773 0.107-1.02 0.22-0.253 0.12-0.43 0.287-0.53 0.5-0.1 0.22-0.15 0.53-0.15 0.93v0c0 0.567 0.077 1.1 0.23 1.6 0.147 0.5 0.303 1 0.47 1.5v0l5.3 14.5h0.2l4.55-10.75c0.7-1.667 1.2-3 1.5-4 0.3-1 0.45-1.883 0.45-2.65v0c0-0.767-0.2-1.283-0.6-1.55-0.4-0.267-1.267-0.4-2.6-0.4v0-1.75h9.95v1.75c-0.533 0-1.017 0.133-1.45 0.4-0.433 0.267-0.817 0.6-1.15 1v0c-0.267 0.367-0.54 0.857-0.82 1.47-0.287 0.62-0.57 1.263-0.85 1.93-0.287 0.667-0.547 1.323-0.78 1.97-0.233 0.653-0.45 1.18-0.65 1.58v0l-7.35 16.95zM126.15-6.05l1.55 1.4c-2.833 3.433-6.35 5.15-10.55 5.15v0c-1.967 0-3.75-0.327-5.35-0.98-1.6-0.647-2.973-1.563-4.12-2.75-1.153-1.18-2.047-2.597-2.68-4.25-0.633-1.647-0.95-3.47-0.95-5.47v0c0-2.033 0.333-3.917 1-5.65 0.667-1.733 1.61-3.217 2.83-4.45 1.213-1.233 2.663-2.2 4.35-2.9 1.68-0.7 3.52-1.05 5.52-1.05v0c3.233 0 5.733 0.873 7.5 2.62 1.767 1.753 2.65 4.263 2.65 7.53v0c0 0.467-0.09 0.75-0.27 0.85-0.187 0.1-0.613 0.15-1.28 0.15v0h-16.45c-0.067 0.267-0.117 0.59-0.15 0.97-0.033 0.387-0.05 0.813-0.05 1.28v0c0 1.733 0.21 3.307 0.63 4.72 0.413 1.42 1.013 2.63 1.8 3.63 0.78 1 1.713 1.773 2.8 2.32 1.08 0.553 2.287 0.83 3.62 0.83v0c1.4 0 2.7-0.31 3.9-0.93 1.2-0.613 2.433-1.62 3.7-3.02zM110.25-18.15h9.2c0.667 0 1.2-0.017 1.6-0.05 0.4-0.033 0.7-0.1 0.9-0.2 0.2-0.1 0.333-0.24 0.4-0.42 0.067-0.187 0.1-0.43 0.1-0.73v0c0-1.533-0.49-2.76-1.47-3.68-0.987-0.913-2.33-1.37-4.03-1.37v0c-3.6 0-5.833 2.15-6.7 6.45zM140.7-41.5v33.7c0 1.267 0.05 2.283 0.15 3.05 0.1 0.767 0.307 1.367 0.62 1.8 0.32 0.433 0.77 0.733 1.35 0.9 0.587 0.167 1.363 0.267 2.33 0.3v0 1.75h-13.8v-1.75c1-0.033 1.8-0.143 2.4-0.33 0.6-0.18 1.077-0.47 1.43-0.87 0.347-0.4 0.58-0.96 0.7-1.68 0.113-0.713 0.17-1.653 0.17-2.82v0-21.55c0-1.8-0.027-3.307-0.08-4.52-0.047-1.22-0.12-2.047-0.22-2.48v0c-0.167-0.767-0.56-1.283-1.18-1.55-0.613-0.267-1.72-0.4-3.32-0.4v0-1.7zM162.75-27v0c1.9 0 3.7 0.34 5.4 1.02 1.7 0.687 3.193 1.63 4.48 2.83 1.28 1.2 2.297 2.623 3.05 4.27 0.747 1.653 1.12 3.463 1.12 5.43v0c0 2.033-0.373 3.9-1.12 5.6-0.753 1.7-1.77 3.167-3.05 4.4-1.287 1.233-2.78 2.2-4.48 2.9-1.7 0.7-3.5 1.05-5.4 1.05v0c-1.867 0-3.64-0.343-5.32-1.03-1.687-0.68-3.163-1.637-4.43-2.87-1.267-1.233-2.267-2.71-3-4.43-0.733-1.713-1.1-3.587-1.1-5.62v0c0-1.967 0.367-3.783 1.1-5.45 0.733-1.667 1.733-3.1 3-4.3 1.267-1.2 2.743-2.133 4.43-2.8 1.68-0.667 3.453-1 5.32-1zM162.75-24.6v0c-1.233 0-2.357 0.267-3.37 0.8-1.02 0.533-1.887 1.29-2.6 2.27-0.72 0.987-1.27 2.17-1.65 3.55-0.387 1.387-0.58 2.913-0.58 4.58v0c0 1.733 0.193 3.3 0.58 4.7 0.38 1.4 0.93 2.59 1.65 3.57 0.713 0.987 1.57 1.747 2.57 2.28 1 0.533 2.133 0.8 3.4 0.8v0c1.267 0 2.417-0.267 3.45-0.8 1.033-0.533 1.917-1.3 2.65-2.3 0.733-1 1.3-2.2 1.7-3.6 0.4-1.4 0.6-2.95 0.6-4.65v0c0-1.667-0.2-3.183-0.6-4.55-0.4-1.367-0.967-2.543-1.7-3.53-0.733-0.98-1.617-1.747-2.65-2.3-1.033-0.547-2.183-0.82-3.45-0.82zM189.7-26.8v3.9h0.2c1.067-1.267 2.217-2.267 3.45-3 1.233-0.733 2.667-1.1 4.3-1.1v0c1.9 0 3.643 0.34 5.23 1.02 1.58 0.687 2.953 1.647 4.12 2.88 1.167 1.233 2.073 2.69 2.72 4.37 0.653 1.687 0.98 3.53 0.98 5.53v0c0 2.033-0.333 3.89-1 5.57-0.667 1.687-1.583 3.13-2.75 4.33-1.167 1.2-2.55 2.133-4.15 2.8-1.6 0.667-3.333 1-5.2 1v0c-1.533 0-2.927-0.26-4.18-0.78-1.247-0.513-2.42-1.353-3.52-2.52v0 7.3c0 1.333 0.067 2.4 0.2 3.2 0.133 0.8 0.4 1.417 0.8 1.85 0.4 0.433 0.977 0.733 1.73 0.9 0.747 0.167 1.737 0.267 2.97 0.3v0 1.75h-15.4v-1.75c1-0.033 1.81-0.133 2.43-0.3 0.613-0.167 1.093-0.467 1.44-0.9 0.353-0.433 0.597-1.023 0.73-1.77 0.133-0.753 0.2-1.73 0.2-2.93v0-18.7c0-1.933-0.027-3.517-0.08-4.75-0.047-1.233-0.137-2.083-0.27-2.55v0c-0.167-0.8-0.55-1.343-1.15-1.63-0.6-0.28-1.733-0.42-3.4-0.42v0-1.7zM191.2-21.45v0c-0.433 0.667-0.76 1.46-0.98 2.38-0.213 0.913-0.32 2.103-0.32 3.57v0 3.9c0 0.9 0.023 1.673 0.07 2.32 0.053 0.653 0.13 1.213 0.23 1.68 0.1 0.467 0.233 0.883 0.4 1.25 0.167 0.367 0.383 0.717 0.65 1.05v0c0.767 1.067 1.683 1.89 2.75 2.47 1.067 0.587 2.183 0.88 3.35 0.88v0c2.3 0 4.157-0.967 5.57-2.9 1.42-1.933 2.13-4.65 2.13-8.15v0c0-1.733-0.193-3.31-0.58-4.73-0.38-1.413-0.92-2.63-1.62-3.65-0.7-1.013-1.543-1.803-2.53-2.37-0.98-0.567-2.07-0.85-3.27-0.85v0c-1.2 0-2.31 0.273-3.33 0.82-1.013 0.553-1.853 1.33-2.52 2.33zM237.7-6.05l1.55 1.4c-2.833 3.433-6.35 5.15-10.55 5.15v0c-1.967 0-3.75-0.327-5.35-0.98-1.6-0.647-2.977-1.563-4.13-2.75-1.147-1.18-2.037-2.597-2.67-4.25-0.633-1.647-0.95-3.47-0.95-5.47v0c0-2.033 0.333-3.917 1-5.65 0.667-1.733 1.607-3.217 2.82-4.45 1.22-1.233 2.67-2.2 4.35-2.9 1.687-0.7 3.53-1.05 5.53-1.05v0c3.233 0 5.733 0.873 7.5 2.62 1.767 1.753 2.65 4.263 2.65 7.53v0c0 0.467-0.093 0.75-0.28 0.85-0.18 0.1-0.603 0.15-1.27 0.15v0h-16.45c-0.067 0.267-0.117 0.59-0.15 0.97-0.033 0.387-0.05 0.813-0.05 1.28v0c0 1.733 0.207 3.307 0.62 4.72 0.42 1.42 1.02 2.63 1.8 3.63 0.787 1 1.72 1.773 2.8 2.32 1.087 0.553 2.297 0.83 3.63 0.83v0c1.4 0 2.7-0.31 3.9-0.93 1.2-0.613 2.433-1.62 3.7-3.02zM221.8-18.15h9.2c0.667 0 1.2-0.017 1.6-0.05 0.4-0.033 0.7-0.1 0.9-0.2 0.2-0.1 0.333-0.24 0.4-0.42 0.067-0.187 0.1-0.43 0.1-0.73v0c0-1.533-0.493-2.76-1.48-3.68-0.98-0.913-2.32-1.37-4.02-1.37v0c-3.6 0-5.833 2.15-6.7 6.45zM252.9-9.65v1.7c0 1.367 0.033 2.45 0.1 3.25 0.067 0.8 0.24 1.407 0.52 1.82 0.287 0.42 0.697 0.697 1.23 0.83 0.533 0.133 1.283 0.233 2.25 0.3v0 1.75h-13.3v-1.75c0.967-0.033 1.733-0.123 2.3-0.27 0.567-0.153 1-0.43 1.3-0.83 0.3-0.4 0.49-0.977 0.57-1.73 0.087-0.747 0.13-1.753 0.13-3.02v0-5.85c0-2.267-0.027-4.033-0.08-5.3-0.047-1.267-0.213-2.2-0.5-2.8-0.28-0.6-0.72-0.96-1.32-1.08-0.6-0.113-1.433-0.17-2.5-0.17v0-1.75l8.75-1.9 0.7 6.2h0.2c0.433-1 0.973-1.917 1.62-2.75 0.653-0.833 1.363-1.543 2.13-2.13 0.767-0.58 1.567-1.037 2.4-1.37 0.833-0.333 1.683-0.5 2.55-0.5v0c1.067 0 1.907 0.257 2.52 0.77 0.62 0.52 0.93 1.213 0.93 2.08v0c0 0.8-0.25 1.423-0.75 1.87-0.5 0.453-1.217 0.68-2.15 0.68v0c-0.533 0-0.983-0.067-1.35-0.2-0.367-0.133-0.693-0.277-0.98-0.43-0.28-0.147-0.543-0.287-0.79-0.42-0.253-0.133-0.53-0.2-0.83-0.2v0c-0.9 0-1.8 0.573-2.7 1.72-0.9 1.153-1.6 2.613-2.1 4.38v0c-0.267 0.967-0.477 2.057-0.63 3.27-0.147 1.22-0.22 2.497-0.22 3.83zM270.95-1.75l-1 1.75h-1.1v-8.6h1.25c1.3 4.7 3.667 7.05 7.1 7.05v0c1.333 0 2.393-0.327 3.18-0.98 0.78-0.647 1.17-1.637 1.17-2.97v0c0-0.5-0.077-0.927-0.23-1.28-0.147-0.347-0.43-0.713-0.85-1.1-0.413-0.38-0.997-0.82-1.75-1.32-0.747-0.5-1.737-1.133-2.97-1.9v0c-1.133-0.7-2.117-1.35-2.95-1.95-0.833-0.6-1.533-1.21-2.1-1.83-0.567-0.613-0.993-1.27-1.28-1.97-0.28-0.7-0.42-1.517-0.42-2.45v0c0-1.133 0.19-2.177 0.57-3.13 0.387-0.947 0.913-1.753 1.58-2.42 0.667-0.667 1.45-1.193 2.35-1.58 0.9-0.38 1.883-0.57 2.95-0.57v0c0.9 0 1.833 0.14 2.8 0.42 0.967 0.287 1.817 0.663 2.55 1.13v0l1-1.05h0.95v7.2h-1.3c-0.733-2.033-1.533-3.483-2.4-4.35-0.867-0.867-1.933-1.3-3.2-1.3v0c-1.133 0-2.04 0.3-2.72 0.9-0.687 0.6-1.03 1.433-1.03 2.5v0c0 0.567 0.093 1.057 0.28 1.47 0.18 0.42 0.47 0.83 0.87 1.23 0.4 0.4 0.907 0.807 1.52 1.22 0.62 0.42 1.363 0.897 2.23 1.43v0c1.433 0.9 2.657 1.7 3.67 2.4 1.02 0.7 1.847 1.39 2.48 2.07 0.633 0.687 1.1 1.397 1.4 2.13 0.3 0.733 0.45 1.567 0.45 2.5v0c0 2.367-0.767 4.223-2.3 5.57-1.533 1.353-3.55 2.03-6.05 2.03v0c-2.6 0-4.833-0.75-6.7-2.25z" fill="#6f605b" fill-rule="nonzero" stroke="none" stroke-width="1" stroke-linecap="butt" stroke-linejoin="miter" stroke-miterlimit="10" stroke-dasharray="" stroke-dashoffset="0" font-family="none" font-weight="none" font-size="none" text-anchor="none" style="mix-blend-mode: normal" data-fill-palette-color="primary" opacity="1"></path></g></svg></g></svg></g></svg></g></svg></g><g transform="matrix(1,0,0,1,0,0.5)"><svg viewBox="0 0 164.17236571276806 199.99999999999997" height="199.99999999999997" width="164.17236571276806"><g><svg xmlns="http://www.w3.org/2000/svg" xmlns:xlink="http://www.w3.org/1999/xlink" version="1.1" x="0" y="0" viewBox="12.358 4.8 74.178 90.366" enable-background="new 0 0 100 100" xml:space="preserve" height="199.99999999999997" width="164.17236571276806" class="icon-icon-0" data-fill-palette-color="accent" id="icon-0"><path fill="#f36527" d="M70.592 19.637v75.529l15.944-12.55V7.087L70.592 19.637zM78.635 23.577l3.512-2.666v5.908l-3.512 2.666V23.577zM78.635 30.833l3.512-2.667v5.58l-3.512 2.667V30.833zM78.635 43.431l3.512-2.667v5.91l-3.512 2.667V43.431zM74.225 26.922l3.514-2.667v5.909l-3.514 2.667V26.922zM74.225 34.177l3.514-2.666v5.581l-3.514 2.666V34.177zM74.225 46.776l3.514-2.667v5.909l-3.514 2.666V46.776zM74.225 54.029l3.514-2.663v5.581l-3.514 2.667V54.029zM78.301 75.309l-3.514 2.668v-5.582l3.514-2.666V75.309zM78.301 68.381l-3.514 2.667v-5.909l3.514-2.668V68.381zM78.635 50.688l3.512-2.667v5.583l-3.512 2.666V50.688zM82.707 71.963l-3.512 2.667v-5.581l3.512-2.667V71.963zM82.707 65.035l-3.512 2.667v-5.91l3.512-2.665V65.035z" data-fill-palette-color="accent"></path><polygon fill="#f36527" points="85.122,4.818 85.145,4.8 85.04,4.818 28.303,4.818 12.388,17.344 12.358,17.35 12.381,17.35   12.358,17.368 12.463,17.35 69.2,17.35 85.116,4.823 85.145,4.818 " data-fill-palette-color="accent"></polygon><path fill="#f36527" d="M12.358 19.658v75.334h28.46l19.67-15.662v15.662h7.324V19.658H12.358zM27.007 26.982h5.231v6.278h-5.231V26.982zM27.007 34.306h5.231v5.231h-5.231V34.306zM27.007 46.862h5.231v5.232h-5.231V46.862zM20.729 26.982h5.231v6.278h-5.231V26.982zM20.729 34.306h5.231v5.231h-5.231V34.306zM20.729 46.862h5.231v5.232h-5.231V46.862zM20.729 53.139h5.231v5.231h-5.231V53.139zM25.96 79.298h-5.231V73.02h5.231V79.298zM25.96 71.975h-5.231v-5.229h5.231V71.975zM27.007 53.139h5.231v5.231h-5.231V53.139zM32.238 79.298h-5.231V73.02h5.231V79.298zM32.238 71.975h-5.231v-5.229h5.231V71.975zM53.164 26.982h5.232v6.278h-5.232V26.982zM53.164 34.306h5.232v5.231h-5.232V34.306zM53.164 46.862h5.232v5.232h-5.232V46.862zM53.164 53.139h5.232v5.231h-5.232V53.139zM46.887 26.982h5.231v6.278h-5.231V26.982zM46.887 34.306h5.231v5.231h-5.231V34.306zM46.887 46.862h5.231v5.232h-5.231V46.862zM46.887 53.139h5.231v5.231h-5.231V53.139zM40.609 92.898V66.742h19.879v10.42L40.609 92.898z" data-fill-palette-color="accent"></path></svg></g></svg></g></svg></g><defs></defs></svg><rect width="395.52" height="149.4439417023909" fill="none" stroke="none" visibility="hidden"></rect></g></svg></g></svg>